<mxfile host="app.diagrams.net" agent="Mozilla/5.0 (Windows NT 10.0; Win64; x64) AppleWebKit/537.36 (KHTML, like Gecko) Chrome/130.0.0.0 Safari/537.36" version="24.8.6">
  <diagram id="C5RBs43oDa-KdzZeNtuy" name="Page-1">
    <mxGraphModel dx="4279" dy="1305" grid="1" gridSize="10" guides="1" tooltips="1" connect="1" arrows="1" fold="1" page="1" pageScale="1" pageWidth="827" pageHeight="1169" math="0" shadow="0">
      <root>
        <mxCell id="WIyWlLk6GJQsqaUBKTNV-0" />
        <mxCell id="WIyWlLk6GJQsqaUBKTNV-1" parent="WIyWlLk6GJQsqaUBKTNV-0" />
        <mxCell id="UcNlgHtU5pzMbgCCItEO-10" style="edgeStyle=orthogonalEdgeStyle;rounded=0;orthogonalLoop=1;jettySize=auto;html=1;exitX=0.5;exitY=1;exitDx=0;exitDy=0;" edge="1" parent="WIyWlLk6GJQsqaUBKTNV-1" source="WIyWlLk6GJQsqaUBKTNV-3">
          <mxGeometry relative="1" as="geometry">
            <mxPoint x="-1420" y="140" as="targetPoint" />
          </mxGeometry>
        </mxCell>
        <mxCell id="UcNlgHtU5pzMbgCCItEO-11" style="edgeStyle=orthogonalEdgeStyle;rounded=0;orthogonalLoop=1;jettySize=auto;html=1;exitX=0.5;exitY=1;exitDx=0;exitDy=0;" edge="1" parent="WIyWlLk6GJQsqaUBKTNV-1" source="WIyWlLk6GJQsqaUBKTNV-3">
          <mxGeometry relative="1" as="geometry">
            <mxPoint x="2563.9999389648447" y="140" as="targetPoint" />
          </mxGeometry>
        </mxCell>
        <mxCell id="UcNlgHtU5pzMbgCCItEO-18" style="edgeStyle=orthogonalEdgeStyle;rounded=0;orthogonalLoop=1;jettySize=auto;html=1;exitX=0.5;exitY=1;exitDx=0;exitDy=0;entryX=0.5;entryY=0;entryDx=0;entryDy=0;" edge="1" parent="WIyWlLk6GJQsqaUBKTNV-1" source="WIyWlLk6GJQsqaUBKTNV-3" target="UcNlgHtU5pzMbgCCItEO-16">
          <mxGeometry relative="1" as="geometry" />
        </mxCell>
        <mxCell id="UcNlgHtU5pzMbgCCItEO-19" style="edgeStyle=orthogonalEdgeStyle;rounded=0;orthogonalLoop=1;jettySize=auto;html=1;exitX=0.5;exitY=1;exitDx=0;exitDy=0;" edge="1" parent="WIyWlLk6GJQsqaUBKTNV-1" source="WIyWlLk6GJQsqaUBKTNV-3" target="UcNlgHtU5pzMbgCCItEO-15">
          <mxGeometry relative="1" as="geometry" />
        </mxCell>
        <mxCell id="WIyWlLk6GJQsqaUBKTNV-3" value="&lt;b&gt;&lt;font style=&quot;font-size: 24px;&quot;&gt;Quantum Computing&lt;/font&gt;&lt;/b&gt;" style="rounded=1;whiteSpace=wrap;html=1;fontSize=12;glass=0;strokeWidth=1;shadow=0;" parent="WIyWlLk6GJQsqaUBKTNV-1" vertex="1">
          <mxGeometry x="354" y="30" width="146" height="70" as="geometry" />
        </mxCell>
        <mxCell id="UcNlgHtU5pzMbgCCItEO-20" style="edgeStyle=orthogonalEdgeStyle;rounded=0;orthogonalLoop=1;jettySize=auto;html=1;" edge="1" parent="WIyWlLk6GJQsqaUBKTNV-1" source="UcNlgHtU5pzMbgCCItEO-0">
          <mxGeometry relative="1" as="geometry">
            <mxPoint x="-1410" y="940" as="targetPoint" />
            <Array as="points">
              <mxPoint x="-1410" y="470" />
              <mxPoint x="-1410" y="470" />
            </Array>
          </mxGeometry>
        </mxCell>
        <mxCell id="UcNlgHtU5pzMbgCCItEO-21" value="Text" style="edgeLabel;html=1;align=center;verticalAlign=middle;resizable=0;points=[];" vertex="1" connectable="0" parent="UcNlgHtU5pzMbgCCItEO-20">
          <mxGeometry x="-0.4975" y="-1" relative="1" as="geometry">
            <mxPoint y="1" as="offset" />
          </mxGeometry>
        </mxCell>
        <mxCell id="UcNlgHtU5pzMbgCCItEO-22" value="Text" style="edgeLabel;html=1;align=center;verticalAlign=middle;resizable=0;points=[];" vertex="1" connectable="0" parent="UcNlgHtU5pzMbgCCItEO-20">
          <mxGeometry x="-0.4975" y="-1" relative="1" as="geometry">
            <mxPoint y="1" as="offset" />
          </mxGeometry>
        </mxCell>
        <mxCell id="UcNlgHtU5pzMbgCCItEO-24" style="edgeStyle=orthogonalEdgeStyle;rounded=0;orthogonalLoop=1;jettySize=auto;html=1;exitX=0.5;exitY=1;exitDx=0;exitDy=0;" edge="1" parent="WIyWlLk6GJQsqaUBKTNV-1" source="UcNlgHtU5pzMbgCCItEO-0">
          <mxGeometry relative="1" as="geometry">
            <mxPoint x="-1190" y="480" as="targetPoint" />
          </mxGeometry>
        </mxCell>
        <mxCell id="UcNlgHtU5pzMbgCCItEO-0" value="&lt;font style=&quot;font-size: 24px;&quot;&gt;Fundamental&lt;/font&gt;" style="rounded=0;whiteSpace=wrap;html=1;" vertex="1" parent="WIyWlLk6GJQsqaUBKTNV-1">
          <mxGeometry x="-1490" y="140" width="160" height="90" as="geometry" />
        </mxCell>
        <mxCell id="UcNlgHtU5pzMbgCCItEO-14" value="&lt;font style=&quot;font-size: 24px;&quot;&gt;Advanced&lt;/font&gt;" style="rounded=0;whiteSpace=wrap;html=1;" vertex="1" parent="WIyWlLk6GJQsqaUBKTNV-1">
          <mxGeometry x="2500" y="140" width="160" height="90" as="geometry" />
        </mxCell>
        <mxCell id="UcNlgHtU5pzMbgCCItEO-15" value="&lt;font style=&quot;font-size: 24px;&quot;&gt;Intermediate algorithms and simulation&lt;/font&gt;" style="rounded=0;whiteSpace=wrap;html=1;" vertex="1" parent="WIyWlLk6GJQsqaUBKTNV-1">
          <mxGeometry x="1250" y="140" width="160" height="90" as="geometry" />
        </mxCell>
        <mxCell id="UcNlgHtU5pzMbgCCItEO-16" value="&lt;font style=&quot;font-size: 24px;&quot;&gt;Introduction&lt;/font&gt;" style="rounded=0;whiteSpace=wrap;html=1;" vertex="1" parent="WIyWlLk6GJQsqaUBKTNV-1">
          <mxGeometry x="-310" y="140" width="160" height="90" as="geometry" />
        </mxCell>
      </root>
    </mxGraphModel>
  </diagram>
</mxfile>
